<?xml version="1.0" encoding="UTF-8"?>
<svg id="Calque_1" data-name="Calque 1" xmlns="http://www.w3.org/2000/svg" viewBox="0 0 142.23 41.58">
  <defs>
    <style>
      .cls-1 {
        fill: #fff;
      }
    </style>
  </defs>
  <path class="cls-1" d="M23.4,16.47c.08.22.21.39.38.51.17.12.36.18.56.18h0c.25,0,.48-.09.68-.27.2-.18.31-.42.31-.73,0-.13-.02-.27-.08-.41L19.05.67c-.07-.2-.19-.37-.37-.48-.18-.12-.38-.18-.59-.18-.22-.01-.42.03-.6.14-.18.11-.31.29-.4.52l-6.29,15.23c-.05.14-.07.27-.05.38,0,.24.08.44.23.61.15.17.39.26.71.26.19,0,.37-.06.54-.18.17-.12.29-.28.36-.48l1.61-3.91h7.59s1.61,3.9,1.61,3.9ZM15.02,10.59l2.97-7.19,2.98,7.2h-5.95Z"/>
  <path class="cls-1" d="M47.94,12.9c.53-1.28.81-2.72.81-4.26,0-1.13-.15-2.22-.44-3.24-.3-1.02-.75-1.95-1.35-2.74-.6-.79-1.35-1.42-2.25-1.87-.9-.45-1.95-.67-3.13-.67h-6.04s0-.01,0-.01c-.29,0-.53.1-.72.29-.19.19-.29.44-.29.72l-.02,14.97c0,.29.1.53.29.74.19.2.44.31.72.31h6.04s0,.01.02.01c1.59,0,2.93-.39,3.98-1.15,1.05-.77,1.86-1.8,2.39-3.09ZM46.58,8.63c0,1.18-.19,2.28-.55,3.27-.36.98-.93,1.78-1.7,2.37-.77.58-1.77.88-2.99.88h-4.73s.02-13.09.02-13.09h4.71c.92,0,1.72.19,2.38.54.66.35,1.21.83,1.62,1.44.42.61.73,1.31.93,2.1.2.79.3,1.63.3,2.49Z"/>
  <path class="cls-1" d="M68.43,12.93c0,.92.08,1.66.24,2.19.16.54.37.95.61,1.24.24.29.5.5.76.65.13.08.3.14.48.15.18.01.37,0,.55-.06.19-.06.33-.17.44-.32.17-.24.22-.49.14-.74-.07-.25-.23-.46-.47-.61-.17-.11-.3-.26-.39-.45-.09-.2-.17-.47-.21-.82-.05-.36-.09-.84-.12-1.42-.02-.68-.16-1.29-.44-1.8-.27-.51-.64-.94-1.07-1.28-.19-.15-.4-.27-.62-.38.48-.23.88-.5,1.23-.82.46-.43.82-.95,1.08-1.54.26-.59.39-1.24.39-1.92,0-.94-.21-1.78-.64-2.5-.43-.72-1.02-1.3-1.74-1.71s-1.56-.63-2.47-.63h-6.67s0-.01,0-.01c-.29,0-.53.1-.72.29-.19.19-.29.44-.29.72l-.02,14.97c0,.29.11.54.34.74.23.2.5.3.82.3h0c.29,0,.52-.1.69-.31.17-.2.25-.45.25-.73v-5.83s5.06,0,5.06,0c.35,0,.69.04,1.03.12.33.08.63.22.9.43.27.2.48.48.64.81.16.33.24.75.23,1.26ZM68.85,5.04c0,.65-.13,1.24-.4,1.75-.26.51-.6.92-1,1.2-.4.28-.84.44-1.29.47h-5.58s.01-6.37.01-6.37h5.46c.8.01,1.48.29,2.01.84.53.55.79,1.26.79,2.1Z"/>
  <path class="cls-1" d="M82.5.18h0c-.3,0-.55.1-.75.29s-.31.44-.31.75l-.02,14.94c0,.29.09.53.28.73.19.2.44.31.76.31h0c.29,0,.54-.1.75-.3.21-.2.32-.45.32-.74l.02-14.94c0-.3-.1-.55-.3-.75-.2-.19-.45-.29-.74-.29Z"/>
  <path class="cls-1" d="M100.99.8c-.07-.2-.19-.36-.37-.48-.18-.12-.38-.18-.59-.18h0c-.22-.01-.42.03-.6.14-.18.11-.31.28-.39.52l-6.29,15.23c-.05.14-.07.27-.05.38,0,.24.08.45.23.61.15.17.39.26.71.26h0c.19,0,.37-.06.53-.18.17-.12.29-.28.36-.48l1.61-3.91h7.59s1.61,3.9,1.61,3.9c.08.22.21.39.38.51.17.12.36.18.56.18h0c.25,0,.48-.09.68-.26.2-.18.31-.42.31-.73,0-.13-.03-.27-.08-.41l-6.21-15.1ZM102.92,10.74h-5.95s2.97-7.2,2.97-7.2l2.98,7.2Z"/>
  <path class="cls-1" d="M128.92,17.28c.29,0,.53-.1.73-.29s.31-.45.31-.77l.03-15.02c0-.27-.09-.5-.25-.67-.17-.18-.4-.27-.69-.27h0c-.27,0-.5.09-.67.27-.18.18-.27.41-.27.68l-.02,12.38L118.3.6c-.09-.12-.21-.21-.37-.27-.16-.06-.31-.09-.46-.09h0c-.27,0-.5.09-.7.28s-.29.43-.29.74l-.03,15.06c0,.27.09.5.25.67.17.18.39.27.66.27h0c.29,0,.52-.09.7-.27.18-.18.27-.4.27-.68l.02-12.32,9.76,12.95c.09.1.21.19.36.24.15.06.3.09.45.09h0Z"/>
  <path class="cls-1" d="M10.96,32.76c-.41-.29-.87-.51-1.38-.68.12-.05.22-.1.31-.16.63-.36,1.11-.84,1.44-1.44.33-.6.49-1.27.49-1.98,0-1.34-.39-2.4-1.16-3.14-.77-.74-1.88-1.12-3.31-1.12H1.04c-.29-.01-.53.09-.72.28-.19.19-.29.44-.29.72L0,40.21c0,.29.1.53.29.74.19.2.44.31.72.31h6.36s0,.01.01.01c.63,0,1.26-.08,1.88-.24.62-.16,1.2-.43,1.71-.82.51-.38.93-.89,1.24-1.51.31-.62.47-1.41.47-2.33,0-.86-.16-1.59-.47-2.18s-.73-1.06-1.25-1.42ZM8.89,30.75c-.5.45-1.1.67-1.79.67H2.19s0-5.18,0-5.18h4.86c.81,0,1.44.23,1.9.66.45.43.68,1.05.68,1.84,0,.88-.25,1.56-.75,2.01ZM2.19,33.44h5.05c.54,0,1.07.09,1.57.25.49.16.9.45,1.22.87.31.42.47,1.02.47,1.8,0,1-.3,1.74-.89,2.21-.59.47-1.36.71-2.29.71H2.18s0-5.83,0-5.83Z"/>
  <path class="cls-1" d="M29.11,24.86c-.07-.2-.19-.37-.37-.48-.18-.12-.38-.18-.59-.18h0c-.22-.01-.42.03-.6.14-.18.11-.31.29-.4.52l-6.29,15.22c-.05.14-.07.27-.05.38,0,.24.08.44.23.61.15.17.39.26.71.26.19,0,.37-.06.54-.18.17-.12.29-.28.36-.48l1.61-3.91h7.59s1.61,3.9,1.61,3.9c.08.22.21.39.38.51.17.12.36.18.56.18.25,0,.48-.09.69-.26.2-.18.31-.42.31-.73,0-.13-.02-.27-.08-.41l-6.21-15.1ZM31.04,34.8h-5.95s2.97-7.2,2.97-7.2l2.98,7.2Z"/>
  <path class="cls-1" d="M56.39,24.3c-.31,0-.55.1-.72.31-.17.2-.25.45-.25.73l-.02,9.6c0,.87-.22,1.66-.64,2.34-.42.68-.98,1.22-1.67,1.61-.68.39-1.44.58-2.24.58h0c-.79,0-1.54-.2-2.21-.59-.67-.39-1.22-.93-1.61-1.62-.4-.68-.6-1.47-.59-2.35l.02-9.6c0-.29-.11-.53-.32-.74-.21-.2-.45-.3-.72-.3h0c-.32,0-.58.1-.77.3-.19.2-.29.45-.29.74l-.02,9.6c0,1.25.28,2.38.85,3.36.56.99,1.35,1.78,2.32,2.35.98.58,2.1.87,3.35.87h.01c1.22,0,2.34-.29,3.3-.86.97-.57,1.75-1.36,2.33-2.35.58-.99.87-2.12.87-3.36l.02-9.6c0-.29-.09-.53-.28-.74-.19-.2-.43-.31-.71-.31Z"/>
  <path class="cls-1" d="M80.56,26.89c-.6-.79-1.35-1.42-2.25-1.87-.9-.45-1.95-.67-3.13-.67h-6.04s0,0,0,0c-.28,0-.53.1-.72.29-.19.19-.29.44-.29.72l-.03,14.97c0,.29.1.53.29.74s.44.31.72.31h6.04s.01,0,.02,0c1.59,0,2.93-.39,3.98-1.15,1.05-.76,1.86-1.8,2.39-3.09.54-1.28.81-2.71.81-4.26,0-1.13-.15-2.22-.44-3.24-.3-1.02-.75-1.94-1.35-2.74ZM80.17,32.87c0,1.18-.19,2.28-.55,3.27-.36.98-.93,1.78-1.7,2.37-.77.58-1.78.88-3,.88h-4.73s.02-13.09.02-13.09h4.71c.92,0,1.72.19,2.38.54.66.35,1.21.84,1.63,1.44.42.61.73,1.31.93,2.1.2.79.3,1.63.3,2.49Z"/>
  <path class="cls-1" d="M104.13,24.38h0c-.3,0-.54.1-.71.31-.17.2-.25.45-.25.73l-.02,9.6c0,.87-.22,1.66-.64,2.34-.42.68-.98,1.23-1.67,1.61-.68.39-1.44.58-2.24.58h0c-.79,0-1.54-.2-2.21-.59s-1.21-.93-1.61-1.62c-.4-.68-.6-1.47-.59-2.35l.02-9.6c0-.29-.11-.53-.32-.74-.21-.2-.45-.3-.72-.3-.32,0-.58.1-.77.3-.19.2-.29.45-.29.73l-.02,9.6c0,1.24.28,2.38.85,3.36.56.99,1.35,1.78,2.32,2.36.98.58,2.1.87,3.35.87h.02c1.22,0,2.33-.29,3.3-.86.97-.57,1.76-1.36,2.33-2.35.58-.98.87-2.12.87-3.36l.02-9.6c0-.29-.09-.53-.28-.74-.19-.2-.43-.31-.71-.31Z"/>
  <path class="cls-1" d="M116.92,24.42h0c-.3,0-.55.1-.75.29-.2.19-.31.44-.31.75l-.03,14.94c0,.29.09.53.28.74.19.2.44.31.76.31h0c.28,0,.53-.1.75-.3.21-.2.32-.45.32-.74l.03-14.94c0-.3-.1-.56-.3-.75-.2-.19-.45-.29-.74-.29Z"/>
  <path class="cls-1" d="M141.98,24.73h0c-.17-.18-.4-.27-.69-.27-.27,0-.5.09-.68.27s-.27.41-.27.67l-.02,12.38-9.78-12.98c-.09-.12-.21-.21-.37-.27-.16-.06-.31-.09-.46-.09-.27,0-.5.09-.7.28s-.29.43-.29.74l-.03,15.06c0,.27.09.5.25.67.17.18.39.27.66.27h0c.28,0,.52-.09.69-.27.18-.18.27-.4.27-.67l.02-12.32,9.76,12.95c.09.1.21.19.36.25.15.06.3.09.45.09.29,0,.53-.1.73-.29.2-.19.31-.45.31-.77l.03-15.02c0-.27-.09-.5-.25-.67Z"/>
</svg>